<?xml version="1.0" standalone="no"?>
<!DOCTYPE svg PUBLIC "-//W3C//DTD SVG 20010904//EN"
 "http://www.w3.org/TR/2001/REC-SVG-20010904/DTD/svg10.dtd">
<svg version="1.0" xmlns="http://www.w3.org/2000/svg"
 width="44.000000pt" height="43.000000pt" viewBox="0 0 44.000000 43.000000"
 preserveAspectRatio="xMidYMid meet">

<g transform="translate(0.000000,43.000000) scale(0.100000,-0.100000)"
fill="#000000" stroke="none">
<path d="M311 391 c-27 -21 -23 -55 6 -49 13 2 18 13 18 36 1 17 1 32 0 32 0
0 -11 -9 -24 -19z"/>
<path d="M102 369 c2 -6 8 -10 13 -10 5 0 11 4 13 10 2 6 -4 11 -13 11 -9 0
-15 -5 -13 -11z"/>
<path d="M136 333 c-64 -32 -67 -35 -50 -49 18 -14 18 -14 -3 -5 -30 15 -33
14 -33 -8 0 -14 32 -40 113 -90 63 -39 118 -71 123 -71 18 0 124 61 124 72 0
5 -16 1 -36 -11 -45 -27 -52 -26 -46 4 3 18 17 32 44 46 l40 20 -80 50 c-44
27 -85 49 -91 49 -6 0 -11 4 -11 9 0 21 -30 16 -94 -16z m100 -28 c4 -8 14
-15 24 -15 32 0 30 -15 -5 -34 -35 -19 -85 -15 -55 4 8 5 23 7 32 4 13 -4 16
-1 12 10 -3 9 -14 16 -24 16 -23 0 -35 16 -18 23 22 9 28 7 34 -8z m-42 -24
c7 -11 -14 -20 -31 -13 -7 2 -13 8 -13 13 0 12 37 12 44 0z m-44 -37 c0 -2 -9
0 -20 6 -11 6 -20 13 -20 16 0 2 9 0 20 -6 11 -6 20 -13 20 -16z m111 -48 c8
5 9 3 4 -6 -6 -10 -2 -12 15 -7 17 4 20 3 12 -5 -13 -13 -70 9 -112 43 -17 14
-10 12 22 -6 26 -15 53 -23 59 -19z"/>
<path d="M29 279 c0 -2 -1 -26 -2 -53 -3 -49 -3 -50 45 -79 27 -17 46 -32 43
-35 -3 -3 -11 0 -17 6 -16 16 -38 15 -38 0 0 -16 88 -73 98 -64 3 4 1 16 -6
26 -16 27 -11 25 45 -10 26 -17 53 -30 61 -30 7 0 44 17 80 37 79 43 77 41 69
49 -3 3 -39 -12 -80 -35 l-73 -40 -105 64 -104 65 -1 46 c-1 24 -4 48 -8 51
-3 4 -6 4 -7 2z m66 -169 c4 -6 16 -8 28 -5 15 4 18 3 9 -3 -11 -7 -11 -10 2
-15 9 -4 16 -11 16 -17 0 -7 -13 -3 -31 7 -36 21 -57 43 -41 43 6 0 14 -5 17
-10z"/>
</g>
</svg>
