<svg width="2285" height="675" viewBox="0 0 2285 675" fill="none" xmlns="http://www.w3.org/2000/svg">
<g clip-path="url(#clip0_1390_18)">
<path d="M0 233.34L54.4274 230.314C109.014 227.466 217.868 221.414 326.565 184.39C435.261 147.366 543.798 79.0141 652.494 82.3961C761.191 85.6001 870.046 160.36 979.059 158.936C1088.07 157.334 1196.93 79.726 1305.94 69.224C1414.95 58.9 1523.81 115.86 1632.51 136.686C1741.2 157.334 1849.74 142.026 1958.44 113.19C2067.13 84.354 2175.99 42.346 2230.57 21.164L2285 0.160034V674.78H2230.57C2175.99 674.78 2067.13 674.78 1958.44 674.78C1849.74 674.78 1741.2 674.78 1632.51 674.78C1523.81 674.78 1414.95 674.78 1305.94 674.78C1196.93 674.78 1088.07 674.78 979.059 674.78C870.046 674.78 761.191 674.78 652.494 674.78C543.798 674.78 435.261 674.78 326.565 674.78C217.868 674.78 109.014 674.78 54.4274 674.78H0V233.34Z" fill="#C9D8B1"/>
</g>
<defs>
<clipPath id="clip0_1390_18">
<rect width="2285" height="674.62" fill="white" transform="translate(0 0.160034)"/>
</clipPath>
</defs>
</svg>
