<svg width="1470" height="638" viewBox="0 0 1470 638" fill="none" xmlns="http://www.w3.org/2000/svg">
<g filter="url(#filter0_d_1158_43)">
<path d="M9 541L57 509.2C105 477.3 201 413.7 297 388C393 362.3 489 374.7 585 363.2C681 351.7 777 316.3 873 318.2C969 320 1065 359 1161 362.5C1257 366 1353 334 1401 318L1449 302V3H1401C1353 3 1257 3 1161 3C1065 3 969 3 873 3C777 3 681 3 585 3C489 3 393 3 297 3C201 3 105 3 57 3H9V541Z" fill="#F9F9F9"/>
</g>
<defs>
<filter id="filter0_d_1158_43" x="0.7" y="0.7" width="1468.6" height="663.6" filterUnits="userSpaceOnUse" color-interpolation-filters="sRGB">
<feFlood flood-opacity="0" result="BackgroundImageFix"/>
<feColorMatrix in="SourceAlpha" type="matrix" values="0 0 0 0 0 0 0 0 0 0 0 0 0 0 0 0 0 0 127 0" result="hardAlpha"/>
<feOffset dx="6" dy="12"/>
<feGaussianBlur stdDeviation="7.15"/>
<feColorMatrix type="matrix" values="0 0 0 0 0 0 0 0 0 0 0 0 0 0 0 0 0 0 0.17 0"/>
<feBlend mode="normal" in2="BackgroundImageFix" result="effect1_dropShadow_1158_43"/>
<feBlend mode="normal" in="SourceGraphic" in2="effect1_dropShadow_1158_43" result="shape"/>
</filter>
</defs>
</svg>
