<svg width="2285" height="952" viewBox="0 0 2285 952" fill="none" xmlns="http://www.w3.org/2000/svg">
<g clip-path="url(#clip0_1170_443)" filter="url(#filter0_i_1170_443)">
<path d="M0 560.093L54.4274 557.396C109.014 554.857 217.868 549.463 326.565 516.46C435.261 483.457 543.798 422.529 652.494 425.544C761.191 428.4 870.046 495.04 979.059 493.771C1088.07 492.343 1196.93 423.164 1305.94 413.803C1414.95 404.6 1523.81 455.373 1632.51 473.937C1741.2 492.343 1849.74 478.697 1958.44 452.993C2067.13 427.289 2175.99 389.844 2230.57 370.963L2285 352.24V953.587H2230.57C2175.99 953.587 2067.13 953.587 1958.44 953.587C1849.74 953.587 1741.2 953.587 1632.51 953.587C1523.81 953.587 1414.95 953.587 1305.94 953.587C1196.93 953.587 1088.07 953.587 979.059 953.587C870.046 953.587 761.191 953.587 652.494 953.587C543.798 953.587 435.261 953.587 326.565 953.587C217.868 953.587 109.014 953.587 54.4274 953.587H0V560.093Z" fill="#C9D8B1"/>
</g>
<defs>
<filter id="filter0_i_1170_443" x="0" y="0" width="2285" height="965" filterUnits="userSpaceOnUse" color-interpolation-filters="sRGB">
<feFlood flood-opacity="0" result="BackgroundImageFix"/>
<feBlend mode="normal" in="SourceGraphic" in2="BackgroundImageFix" result="shape"/>
<feColorMatrix in="SourceAlpha" type="matrix" values="0 0 0 0 0 0 0 0 0 0 0 0 0 0 0 0 0 0 127 0" result="hardAlpha"/>
<feOffset dy="13"/>
<feGaussianBlur stdDeviation="7.7"/>
<feComposite in2="hardAlpha" operator="arithmetic" k2="-1" k3="1"/>
<feColorMatrix type="matrix" values="0 0 0 0 0 0 0 0 0 0 0 0 0 0 0 0 0 0 0.25 0"/>
<feBlend mode="normal" in2="shape" result="effect1_innerShadow_1170_443"/>
</filter>
<clipPath id="clip0_1170_443">
<rect width="2285" height="952" fill="white"/>
</clipPath>
</defs>
</svg>
