<?xml version="1.0" standalone="no"?>
<!DOCTYPE svg PUBLIC "-//W3C//DTD SVG 20010904//EN"
 "http://www.w3.org/TR/2001/REC-SVG-20010904/DTD/svg10.dtd">
<svg version="1.0" xmlns="http://www.w3.org/2000/svg"
 width="96.000000pt" height="80.000000pt" viewBox="0 0 96.000000 80.000000"
 preserveAspectRatio="xMidYMid meet">

<g transform="translate(0.000000,80.000000) scale(0.100000,-0.100000)"
fill="#000000" stroke="none">
<path d="M625 730 c-3 -5 -2 -10 4 -10 5 0 13 5 16 10 3 6 2 10 -4 10 -5 0
-13 -4 -16 -10z"/>
<path d="M408 703 c7 -3 16 -2 19 1 4 3 -2 6 -13 5 -11 0 -14 -3 -6 -6z"/>
<path d="M478 703 c7 -3 16 -2 19 1 4 3 -2 6 -13 5 -11 0 -14 -3 -6 -6z"/>
<path d="M579 694 c-17 -21 0 -49 31 -49 31 0 48 28 31 49 -8 9 -21 16 -31 16
-10 0 -23 -7 -31 -16z"/>
<path d="M310 680 c0 -15 5 -20 18 -18 9 2 17 10 17 18 0 8 -8 16 -17 18 -13
2 -18 -3 -18 -18z"/>
<path d="M426 665 c-8 -8 -20 -15 -26 -15 -17 0 -130 -61 -130 -70 0 -10 232
-150 248 -150 7 0 12 -5 12 -11 0 -8 11 -9 33 -5 26 4 28 4 14 -5 -10 -6 -29
-8 -42 -5 -19 5 -24 2 -28 -16 -3 -18 -5 -17 -6 7 -1 21 -9 35 -29 46 -15 9
-71 42 -125 74 -69 41 -101 55 -109 47 -19 -19 0 -56 39 -78 21 -11 95 -55
165 -98 l127 -78 90 47 c85 44 106 65 81 80 -5 3 -10 1 -10 -4 0 -6 -23 -22
-51 -36 l-50 -26 3 37 c3 33 8 39 55 63 29 14 53 29 53 33 0 7 -281 178 -293
178 -3 0 -12 -7 -21 -15z m69 -69 c18 -13 18 -14 -3 -20 -12 -4 -32 -4 -44 0
-21 6 -21 7 -3 20 10 8 22 14 25 14 3 0 15 -6 25 -14z m-55 -46 c0 -15 -31
-20 -52 -9 -21 11 -21 12 3 24 23 13 49 5 49 -15z m120 10 c13 -9 13 -11 0
-20 -13 -8 -47 -5 -60 7 -5 5 21 23 35 23 6 0 17 -5 25 -10z m-61 -34 c19 -22
-17 -38 -48 -21 -23 12 -23 13 -5 23 26 15 39 15 53 -2z"/>
<path d="M260 640 c0 -5 5 -10 10 -10 6 0 10 5 10 10 0 6 -4 10 -10 10 -5 0
-10 -4 -10 -10z"/>
<path d="M664 615 c-7 -17 4 -37 17 -30 12 8 12 45 -1 45 -6 0 -13 -7 -16 -15z"/>
<path d="M210 560 c-2 -3 -4 -39 -5 -81 l-2 -76 151 -92 c83 -50 162 -91 175
-91 31 0 221 101 221 118 0 6 -3 12 -6 12 -3 0 -50 -25 -105 -55 -55 -30 -105
-55 -112 -55 -7 0 -78 40 -157 88 l-145 88 2 39 c3 36 -11 118 -17 105z"/>
<path d="M228 349 c12 -14 22 -29 22 -35 1 -14 121 -83 136 -77 28 10 13 32
-45 67 -32 20 -64 36 -70 36 -7 0 -24 8 -39 17 l-27 17 23 -25z m142 -79 c8
-4 12 -12 8 -16 -9 -8 -108 54 -108 68 0 5 19 -3 43 -17 23 -14 49 -30 57 -35z"/>
<path d="M237 274 c-8 -8 1 -24 14 -24 5 0 9 7 9 15 0 15 -12 20 -23 9z"/>
<path d="M675 240 c-8 -13 9 -20 24 -11 10 6 9 10 -3 14 -8 3 -18 2 -21 -3z"/>
<path d="M278 213 c6 -2 18 -2 25 0 6 3 1 5 -13 5 -14 0 -19 -2 -12 -5z"/>
<path d="M170 130 c0 -33 -4 -60 -8 -60 -5 0 -17 25 -27 55 -14 39 -24 55 -37
55 -13 0 -18 -8 -18 -27 0 -16 -9 -43 -20 -60 -20 -33 -20 -33 0 -33 11 0 19
6 18 12 -2 7 7 14 20 16 15 2 22 -2 22 -12 0 -12 11 -16 43 -16 l42 0 -3 65
c-3 48 -7 65 -18 65 -10 0 -14 -15 -14 -60z m-60 -16 c0 -8 -6 -14 -14 -14 -9
0 -12 7 -9 20 6 22 23 18 23 -6z"/>
<path d="M638 165 c3 -19 1 -24 -10 -20 -23 9 -51 -30 -44 -60 6 -23 10 -25
69 -25 l64 0 -5 30 c-2 17 0 30 6 30 6 0 18 3 27 7 15 5 17 1 13 -30 -3 -29 0
-37 12 -37 12 0 14 9 12 45 -4 40 -7 45 -26 42 -11 -1 -27 -6 -33 -10 -8 -5
-13 -3 -13 3 0 7 -6 10 -12 8 -8 -3 -12 -19 -10 -41 2 -22 -1 -37 -7 -37 -7 0
-11 24 -11 60 0 52 -3 60 -19 60 -14 0 -17 -6 -13 -25z m2 -66 c0 -38 -24 -35
-28 4 -2 19 1 27 12 27 11 0 16 -10 16 -31z"/>
<path d="M350 170 c0 -5 7 -10 15 -10 8 0 15 5 15 10 0 6 -7 10 -15 10 -8 0
-15 -4 -15 -10z"/>
<path d="M750 170 c0 -5 7 -10 15 -10 8 0 15 5 15 10 0 6 -7 10 -15 10 -8 0
-15 -4 -15 -10z"/>
<path d="M226 134 c-32 -32 -16 -75 28 -73 23 1 25 3 9 6 -32 6 -30 33 2 33
30 0 34 25 6 40 -25 13 -27 13 -45 -6z m39 -14 c3 -5 -1 -10 -9 -10 -9 0 -16
5 -16 10 0 6 4 10 9 10 6 0 13 -4 16 -10z"/>
<path d="M349 143 c0 -4 0 -27 1 -50 2 -52 -6 -69 -26 -52 -16 13 -30 6 -19
-10 11 -19 54 -12 65 9 14 27 9 102 -7 108 -7 2 -13 0 -14 -5z"/>
<path d="M413 143 c-20 -8 -15 -25 5 -18 16 4 19 0 20 -25 0 -16 -4 -30 -10
-30 -5 0 -7 7 -4 16 4 11 1 14 -11 12 -10 -2 -19 -11 -21 -21 -3 -15 5 -17 60
-17 l63 0 0 33 c0 22 5 32 15 32 10 0 15 -10 15 -32 0 -24 4 -33 16 -33 12 0
14 8 11 33 -6 43 -18 56 -50 52 -15 -2 -29 -4 -32 -4 -4 -1 -4 -17 -2 -36 3
-21 0 -35 -7 -35 -6 0 -11 13 -11 28 0 42 -23 59 -57 45z"/>
<path d="M813 143 c-24 -9 -13 -23 12 -17 36 9 31 -12 -6 -25 -41 -14 -32 -35
17 -39 l40 -3 -4 38 c-6 47 -23 61 -59 46z m32 -63 c-3 -5 -10 -10 -16 -10 -5
0 -9 5 -9 10 0 6 7 10 16 10 8 0 12 -4 9 -10z"/>
<path d="M300 75 c0 -8 7 -15 15 -15 8 0 15 7 15 15 0 8 -7 15 -15 15 -8 0
-15 -7 -15 -15z"/>
</g>
</svg>
