<svg id="visual" viewBox="0 0 540 1024" width="540" height="1024" xmlns="http://www.w3.org/2000/svg" xmlns:xlink="http://www.w3.org/1999/xlink" version="1.1"><path d="M0 11L18 14.5C36 18 72 25 108 31.8C144 38.7 180 45.3 216 50.3C252 55.3 288 58.7 324 63.8C360 69 396 76 432 76C468 76 504 69 522 65.5L540 62L540 0L522 0C504 0 468 0 432 0C396 0 360 0 324 0C288 0 252 0 216 0C180 0 144 0 108 0C72 0 36 0 18 0L0 0Z" fill="#866640"></path><path d="M0 32L18 47.3C36 62.7 72 93.3 108 96.7C144 100 180 76 216 77.7C252 79.3 288 106.7 324 130.7C360 154.7 396 175.3 432 180.5C468 185.7 504 175.3 522 170.2L540 165L540 60L522 63.5C504 67 468 74 432 74C396 74 360 67 324 61.8C288 56.7 252 53.3 216 48.3C180 43.3 144 36.7 108 29.8C72 23 36 16 18 12.5L0 9Z" fill="#9c774b"></path><path d="M0 196L18 199.3C36 202.7 72 209.3 108 204.2C144 199 180 182 216 190.5C252 199 288 233 324 241.5C360 250 396 233 432 236.5C468 240 504 264 522 276L540 288L540 163L522 168.2C504 173.3 468 183.7 432 178.5C396 173.3 360 152.7 324 128.7C288 104.7 252 77.3 216 75.7C180 74 144 98 108 94.7C72 91.3 36 60.7 18 45.3L0 30Z" fill="#b28856"></path><path d="M0 247L18 262.3C36 277.7 72 308.3 108 304.8C144 301.3 180 263.7 216 258.5C252 253.3 288 280.7 324 285.8C360 291 396 274 432 272.3C468 270.7 504 284.3 522 291.2L540 298L540 286L522 274C504 262 468 238 432 234.5C396 231 360 248 324 239.5C288 231 252 197 216 188.5C180 180 144 197 108 202.2C72 207.3 36 200.7 18 197.3L0 194Z" fill="#be996a"></path><path d="M0 318L18 324.8C36 331.7 72 345.3 108 330C144 314.7 180 270.3 216 268.7C252 267 288 308 324 323.3C360 338.7 396 328.3 432 328.3C468 328.3 504 338.7 522 343.8L540 349L540 296L522 289.2C504 282.3 468 268.7 432 270.3C396 272 360 289 324 283.8C288 278.7 252 251.3 216 256.5C180 261.7 144 299.3 108 302.8C72 306.3 36 275.7 18 260.3L0 245Z" fill="#c9a980"></path><path d="M0 400L18 401.8C36 403.7 72 407.3 108 393.7C144 380 180 349 216 354C252 359 288 400 324 410.3C360 420.7 396 400.3 432 398.7C468 397 504 414 522 422.5L540 431L540 347L522 341.8C504 336.7 468 326.3 432 326.3C396 326.3 360 336.7 324 321.3C288 306 252 265 216 266.7C180 268.3 144 312.7 108 328C72 343.3 36 329.7 18 322.8L0 316Z" fill="#cdaf89"></path><path d="M0 472L18 475.5C36 479 72 486 108 475.8C144 465.7 180 438.3 216 445C252 451.7 288 492.3 324 492.3C360 492.3 396 451.7 432 443.2C468 434.7 504 458.3 522 470.2L540 482L540 429L522 420.5C504 412 468 395 432 396.7C396 398.3 360 418.7 324 408.3C288 398 252 357 216 352C180 347 144 378 108 391.7C72 405.3 36 401.7 18 399.8L0 398Z" fill="#cdaf89"></path><path d="M0 779L18 734.7C36 690.3 72 601.7 108 574.3C144 547 180 581 216 649.3C252 717.7 288 820.3 324 846C360 871.7 396 820.3 432 794.7C468 769 504 769 522 769L540 769L540 480L522 468.2C504 456.3 468 432.7 432 441.2C396 449.7 360 490.3 324 490.3C288 490.3 252 449.7 216 443C180 436.3 144 463.7 108 473.8C72 484 36 477 18 473.5L0 470Z" fill="#c9a980"></path><path d="M0 789L18 748.2C36 707.3 72 625.7 108 610.3C144 595 180 646 216 714.2C252 782.3 288 867.7 324 884.8C360 902 396 851 432 823.7C468 796.3 504 792.7 522 790.8L540 789L540 767L522 767C504 767 468 767 432 792.7C396 818.3 360 869.7 324 844C288 818.3 252 715.7 216 647.3C180 579 144 545 108 572.3C72 599.7 36 688.3 18 732.7L0 777Z" fill="#be996a"></path><path d="M0 902L18 866.2C36 830.3 72 758.7 108 738.2C144 717.7 180 748.3 216 799.5C252 850.7 288 922.3 324 936C360 949.7 396 905.3 432 873C468 840.7 504 820.3 522 810.2L540 800L540 787L522 788.8C504 790.7 468 794.3 432 821.7C396 849 360 900 324 882.8C288 865.7 252 780.3 216 712.2C180 644 144 593 108 608.3C72 623.7 36 705.3 18 746.2L0 787Z" fill="#b28856"></path><path d="M0 974L18 960.3C36 946.7 72 919.3 108 917.7C144 916 180 940 216 958.8C252 977.7 288 991.3 324 977.7C360 964 396 923 432 907.5C468 892 504 902 522 907L540 912L540 798L522 808.2C504 818.3 468 838.7 432 871C396 903.3 360 947.7 324 934C288 920.3 252 848.7 216 797.5C180 746.3 144 715.7 108 736.2C72 756.7 36 828.3 18 864.2L0 900Z" fill="#9c774b"></path><path d="M0 1025L18 1025C36 1025 72 1025 108 1025C144 1025 180 1025 216 1025C252 1025 288 1025 324 1025C360 1025 396 1025 432 1025C468 1025 504 1025 522 1025L540 1025L540 910L522 905C504 900 468 890 432 905.5C396 921 360 962 324 975.7C288 989.3 252 975.7 216 956.8C180 938 144 914 108 915.7C72 917.3 36 944.7 18 958.3L0 972Z" fill="#866640"></path></svg>